<svg width="142" height="35" viewBox="0 0 142 35" fill="none" xmlns="http://www.w3.org/2000/svg">
<path d="M140.667 24.3093L142 21.9742L137.136 13.4543H134.47L129.605 21.9742L130.939 24.3093H140.667Z" fill="black"/>
<path fill-rule="evenodd" clip-rule="evenodd" d="M17.0333 0C17.0413 0 17.0493 2.23689e-05 17.0573 6.71067e-05C18.0738 0.00574815 18.9417 0.372218 19.6609 1.09948C20.3555 1.80192 20.7027 2.67234 20.7027 3.71073L20.7028 20.661C20.7028 21.6994 20.3555 22.5851 19.6609 23.3181C18.936 24.0205 18.0602 24.3717 17.0334 24.3717H3.6694C2.64257 24.3717 1.76675 24.0205 1.04193 23.3181C0.34731 22.5851 0 21.6994 0 20.661V3.71073C0 2.67234 0.34731 1.80192 1.04193 1.09948C1.75999 0.37333 2.62625 0.00686953 3.6407 9.56771e-05C3.65026 3.18924e-05 3.65982 0 3.6694 0H17.0333ZM4.75663 4.81021V19.6073H15.946V4.81021H4.75663Z" fill="black"/>
<path d="M66.2364 0.274868C66.0552 0.0916228 65.8438 0 65.6022 0H62.6576C62.416 0 62.2046 0.0916228 62.0234 0.274868C61.8422 0.427573 61.7516 0.62609 61.7516 0.870419V19.5615H56.3608C56.3004 19.5615 56.2249 19.5462 56.1343 19.5157C56.0437 19.4546 55.9682 19.4088 55.9078 19.3783L51.9212 14.9804C51.8608 14.9193 51.8004 14.8124 51.74 14.6597C51.7098 14.507 51.6796 14.4001 51.6494 14.339V0.870419C51.6494 0.62609 51.5588 0.427573 51.3776 0.274868C51.2266 0.0916228 51.0303 0 50.7887 0H47.8441C47.6025 0 47.3911 0.0916228 47.2099 0.274868C47.0287 0.427573 46.9381 0.62609 46.9381 0.870419V14.339C46.9381 14.9498 47.074 15.637 47.3458 16.4005C47.6478 17.1641 48.0102 17.7749 48.433 18.233L52.4649 22.6309C52.9179 23.1501 53.5068 23.5777 54.2316 23.9136C54.9564 24.219 55.6661 24.3717 56.3608 24.3717H61.7516V26.1126C61.7516 26.1737 61.7214 26.2653 61.661 26.3874C61.6308 26.5401 61.5855 26.647 61.5251 26.7081L56.9497 31.3809C56.7987 31.5336 56.7232 31.7016 56.7232 31.8848C56.7232 32.0986 56.7987 32.2819 56.9497 32.4346L59.26 34.7709C59.4111 34.9236 59.5772 35 59.7584 35C59.9698 35 60.151 34.9236 60.302 34.7709L64.9227 30.0524C65.3455 29.5942 65.7079 28.9834 66.0099 28.2199C66.3421 27.4564 66.5082 26.7539 66.5082 26.1126V0.870419C66.5082 0.62609 66.4176 0.427573 66.2364 0.274868Z" fill="black"/>
<path d="M70.0049 24.3717H73.2213C73.4327 24.3717 73.6139 24.3107 73.7649 24.1885C73.9159 24.0358 73.9914 23.8373 73.9914 23.5929V4.78487H82.5081C82.9913 4.78487 83.2329 4.52527 83.2329 4.00607V0.799263C83.2329 0.280067 82.9913 0.0204686 82.5081 0.0204686H72.9042C71.9076 0.0204686 71.0469 0.386961 70.322 1.11994C69.5972 1.82239 69.2348 2.67754 69.2348 3.68539V23.5929C69.2348 23.8373 69.3103 24.0358 69.4613 24.1885C69.6123 24.3107 69.7935 24.3717 70.0049 24.3717Z" fill="black"/>
<path d="M104.621 0C104.863 0 105.074 0.0916228 105.256 0.274868C105.437 0.427573 105.527 0.62609 105.527 0.870419V26.1126C105.527 26.7539 105.361 27.4564 105.029 28.2199C104.727 28.9834 104.365 29.5942 103.942 30.0524L99.3212 34.7709C99.1702 34.9236 98.989 35 98.7776 35C98.5964 35 98.4303 34.9236 98.2793 34.7709L95.9689 32.4346C95.8179 32.2819 95.7424 32.0986 95.7424 31.8848C95.7424 31.7016 95.8179 31.5336 95.9689 31.3809L100.544 26.7081C100.605 26.647 100.65 26.5401 100.68 26.3874C100.741 26.2653 100.771 26.1737 100.771 26.1126V24.3717H95.38C94.6854 24.3717 93.9757 24.219 93.2508 23.9136C92.526 23.5777 91.9371 23.1501 91.4841 22.6309L87.4523 18.233C87.0295 17.7749 86.6671 17.1641 86.3651 16.4005C86.0932 15.637 85.9573 14.9498 85.9573 14.339V0.870419C85.9573 0.62609 86.0479 0.427573 86.2291 0.274868C86.4104 0.0916228 86.6218 0 86.8634 0H89.8079C90.0496 0 90.2458 0.0916228 90.3969 0.274868C90.5781 0.427573 90.6687 0.62609 90.6687 0.870419V14.339C90.6989 14.4001 90.7291 14.507 90.7593 14.6597C90.8197 14.8124 90.8801 14.9193 90.9405 14.9804L94.927 19.3783C94.9874 19.4088 95.0629 19.4546 95.1535 19.5157C95.2441 19.5462 95.3196 19.5615 95.38 19.5615H100.771V0.870419C100.771 0.62609 100.861 0.427573 101.043 0.274868C101.224 0.0916228 101.435 0 101.677 0H104.621Z" fill="black"/>
<path d="M44.8218 12.5065V14.339C44.8218 14.9498 44.6708 15.637 44.3688 16.4005C43.9994 17.1237 43.6695 17.6797 43.2816 18.233L40.6436 22.6309C40.1604 23.1501 39.5564 23.5777 38.8315 23.9136C38.1369 24.219 37.4423 24.3717 36.7477 24.3717H25.6594C25.448 24.3717 25.2668 24.3106 25.1158 24.1885C24.9648 24.0358 24.8893 23.8373 24.8893 23.5929V20.3403C24.8893 20.1265 24.9648 19.9586 25.1158 19.8364C25.2668 19.6837 25.448 19.6073 25.6594 19.6073H36.7477C36.8081 19.5768 36.8836 19.5462 36.9742 19.5157C37.0648 19.4852 37.1403 19.4394 37.2007 19.3783L39.8387 14.9804C39.8991 14.9193 39.9444 14.8277 39.9746 14.7055C40.035 14.5528 40.0652 14.4306 40.0652 14.339V13.8809H27.1544C26.1577 13.8809 25.297 13.5297 24.5722 12.8272C23.8776 12.0942 23.5303 11.2086 23.5303 10.1702V3.71073C23.5303 2.67234 23.8776 1.80192 24.5722 1.09948C25.297 0.366492 26.1577 0 27.1544 0H41.9226C42.134 0 42.3152 0.0763525 42.4662 0.229057C42.6172 0.381762 42.6927 0.565008 42.6927 0.778794V4.03141C42.6927 4.2452 42.6172 4.42845 42.4662 4.58115C42.3152 4.73386 42.134 4.81021 41.9226 4.81021H28.2416V9.07068H41.1524C42.1189 9.07068 42.9494 9.40663 43.644 10.0785C44.3386 10.7199 44.7161 11.5292 44.7765 12.5065H44.8218Z" fill="black"/>
<path d="M129.487 14.339V12.5065H129.441C129.381 11.5292 129.004 10.7199 128.309 10.0785C127.614 9.40663 126.784 9.07068 125.817 9.07068H112.907V4.81021H126.588C126.799 4.81021 126.98 4.73386 127.131 4.58115C127.282 4.42845 127.358 4.2452 127.358 4.03141V0.778794C127.358 0.565008 127.282 0.381762 127.131 0.229057C126.98 0.0763525 126.799 0 126.588 0H111.819C110.823 0 109.962 0.366492 109.237 1.09948C108.543 1.80192 108.195 2.67234 108.195 3.71073V10.1702C108.195 11.2086 108.543 12.0942 109.237 12.8272C109.962 13.5297 110.823 13.8809 111.819 13.8809H124.73V14.339C124.73 14.4306 124.7 14.5528 124.64 14.7055C124.609 14.8277 124.564 14.9193 124.504 14.9804L121.866 19.3783C121.805 19.4394 121.73 19.4852 121.639 19.5157C121.549 19.5462 121.473 19.5768 121.413 19.6073H110.324C110.113 19.6073 109.932 19.6837 109.781 19.8364C109.63 19.9586 109.554 20.1265 109.554 20.3403V23.5929C109.554 23.8373 109.63 24.0358 109.781 24.1885C109.932 24.3106 110.113 24.3717 110.324 24.3717H121.413C122.107 24.3717 122.802 24.219 123.496 23.9136C124.221 23.5777 124.825 23.1501 125.309 22.6309L127.947 18.233C128.334 17.6797 128.664 17.1237 129.034 16.4005C129.336 15.637 129.487 14.9498 129.487 14.339Z" fill="black"/>
</svg>
