<svg width="152" height="37" viewBox="0 0 152 37" fill="none" xmlns="http://www.w3.org/2000/svg">
<path d="M150.573 25.6984L152 23.2299L146.793 14.2232H143.939L138.733 23.2299L140.16 25.6984H150.573Z" fill="white"/>
<path fill-rule="evenodd" clip-rule="evenodd" d="M18.2328 0C18.2414 0 18.25 2.36471e-05 18.2585 7.09414e-05C19.3466 0.00607662 20.2756 0.393487 21.0454 1.1623C21.789 1.90489 22.1606 2.82504 22.1606 3.92277L22.1607 21.8416C22.1607 22.9394 21.789 23.8757 21.0454 24.6505C20.2696 25.3931 19.3321 25.7644 18.2329 25.7644H3.92781C2.82867 25.7644 1.89117 25.3931 1.1153 24.6505C0.371768 23.8757 0 22.9394 0 21.8416V3.92277C0 2.82504 0.371768 1.90489 1.1153 1.1623C1.88393 0.394663 2.81119 0.00726207 3.89709 0.000101144C3.90732 3.37148e-05 3.91756 0 3.92781 0H18.2328ZM5.0916 5.08508V20.7278H17.069V5.08508H5.0916Z" fill="white"/>
<path d="M70.901 0.290575C70.707 0.0968584 70.4807 0 70.2221 0H67.0701C66.8115 0 66.5852 0.0968584 66.3913 0.290575C66.1973 0.452006 66.1003 0.661867 66.1003 0.920157V20.6793H60.3298C60.2652 20.6793 60.1844 20.6632 60.0874 20.6309C59.9904 20.5663 59.9096 20.5179 59.8449 20.4856L55.5777 15.8364C55.513 15.7718 55.4484 15.6588 55.3837 15.4974C55.3514 15.336 55.319 15.2229 55.2867 15.1584V0.920157C55.2867 0.661867 55.1897 0.452006 54.9958 0.290575C54.8341 0.0968584 54.624 0 54.3654 0H51.2134C50.9548 0 50.7285 0.0968584 50.5346 0.290575C50.3406 0.452006 50.2436 0.661867 50.2436 0.920157V15.1584C50.2436 15.8041 50.3891 16.5305 50.68 17.3377C51.0033 18.1449 51.3912 18.7906 51.8438 19.2749L56.1596 23.9241C56.6445 24.473 57.2749 24.925 58.0507 25.2801C58.8266 25.603 59.5863 25.7644 60.3298 25.7644H66.1003V27.6047C66.1003 27.6693 66.068 27.7661 66.0033 27.8953C65.971 28.0567 65.9225 28.1697 65.8579 28.2343L60.9602 33.1741C60.7986 33.3355 60.7178 33.5131 60.7178 33.7068C60.7178 33.9328 60.7986 34.1265 60.9602 34.288L63.4333 36.7579C63.5949 36.9193 63.7727 37 63.9667 37C64.193 37 64.3869 36.9193 64.5486 36.7579L69.4947 31.7696C69.9473 31.2853 70.3352 30.6396 70.6585 29.8325C71.0141 29.0253 71.1919 28.2827 71.1919 27.6047V0.920157C71.1919 0.661867 71.0949 0.452006 70.901 0.290575Z" fill="white"/>
<path d="M74.9349 25.7644H78.3778C78.604 25.7644 78.798 25.6998 78.9596 25.5707C79.1213 25.4093 79.2021 25.1994 79.2021 24.9411V5.05829H88.3185C88.8357 5.05829 89.0944 4.78385 89.0944 4.23499V0.844935C89.0944 0.29607 88.8357 0.0216383 88.3185 0.0216383H78.0383C76.9715 0.0216383 76.0502 0.409073 75.2743 1.18394C74.4984 1.92652 74.1105 2.83054 74.1105 3.89598V24.9411C74.1105 25.1994 74.1913 25.4093 74.353 25.5707C74.5146 25.6998 74.7086 25.7644 74.9349 25.7644Z" fill="white"/>
<path d="M111.989 0C112.248 0 112.474 0.0968584 112.668 0.290575C112.862 0.452006 112.959 0.661867 112.959 0.920157V27.6047C112.959 28.2827 112.781 29.0253 112.426 29.8325C112.102 30.6396 111.714 31.2853 111.262 31.7696L106.316 36.7579C106.154 36.9193 105.96 37 105.734 37C105.54 37 105.362 36.9193 105.2 36.7579L102.727 34.288C102.566 34.1265 102.485 33.9328 102.485 33.7068C102.485 33.5131 102.566 33.3355 102.727 33.1741L107.625 28.2343C107.69 28.1697 107.738 28.0567 107.77 27.8953C107.835 27.7661 107.867 27.6693 107.867 27.6047V25.7644H102.097C101.353 25.7644 100.594 25.603 99.8178 25.2801C99.0419 24.925 98.4115 24.473 97.9266 23.9241L93.6109 19.2749C93.1583 18.7906 92.7704 18.1449 92.4471 17.3377C92.1562 16.5305 92.0107 15.8041 92.0107 15.1584V0.920157C92.0107 0.661867 92.1077 0.452006 92.3016 0.290575C92.4956 0.0968584 92.7219 0 92.9805 0H96.1324C96.3911 0 96.6012 0.0968584 96.7628 0.290575C96.9568 0.452006 97.0538 0.661867 97.0538 0.920157V15.1584C97.0861 15.2229 97.1184 15.336 97.1508 15.4974C97.2154 15.6588 97.2801 15.7718 97.3447 15.8364L101.612 20.4856C101.677 20.5179 101.757 20.5663 101.854 20.6309C101.951 20.6632 102.032 20.6793 102.097 20.6793H107.867V0.920157C107.867 0.661867 107.964 0.452006 108.158 0.290575C108.352 0.0968584 108.579 0 108.837 0H111.989Z" fill="white"/>
<path d="M47.9783 13.2212V15.1584C47.9783 15.8041 47.8167 16.5305 47.4934 17.3377C47.098 18.1022 46.7449 18.69 46.3296 19.2749L43.5058 23.9241C42.9886 24.473 42.342 24.925 41.5662 25.2801C40.8226 25.603 40.0791 25.7644 39.3355 25.7644H27.4664C27.2401 25.7644 27.0462 25.6998 26.8845 25.5707C26.7229 25.4093 26.6421 25.1994 26.6421 24.9411V21.5026C26.6421 21.2766 26.7229 21.099 26.8845 20.9699C27.0462 20.8085 27.2401 20.7278 27.4664 20.7278H39.3355C39.4002 20.6955 39.481 20.6632 39.578 20.6309C39.675 20.5986 39.7558 20.5502 39.8205 20.4856L42.6442 15.8364C42.7089 15.7718 42.7574 15.675 42.7897 15.5458C42.8544 15.3844 42.8867 15.2552 42.8867 15.1584V14.6741H29.0666C27.9998 14.6741 27.0785 14.3028 26.3026 13.5602C25.5591 12.7853 25.1873 11.849 25.1873 10.7513V3.92277C25.1873 2.82504 25.5591 1.90489 26.3026 1.1623C27.0785 0.387434 27.9998 0 29.0666 0H44.8749C45.1012 0 45.2951 0.0807155 45.4568 0.242146C45.6184 0.403577 45.6992 0.597294 45.6992 0.823297V4.26178C45.6992 4.48778 45.6184 4.6815 45.4568 4.84293C45.2951 5.00436 45.1012 5.08508 44.8749 5.08508H30.2304V9.58901H44.0505C45.085 9.58901 45.974 9.94415 46.7175 10.6545C47.4611 11.3325 47.8652 12.188 47.9298 13.2212H47.9783Z" fill="white"/>
<path d="M138.606 15.1584V13.2212H138.557C138.492 12.188 138.088 11.3325 137.345 10.6545C136.601 9.94415 135.712 9.58901 134.678 9.58901H120.858V5.08508H135.502C135.728 5.08508 135.922 5.00436 136.084 4.84293C136.246 4.6815 136.326 4.48778 136.326 4.26178V0.823297C136.326 0.597294 136.246 0.403577 136.084 0.242146C135.922 0.0807155 135.728 0 135.502 0H119.694C118.627 0 117.706 0.387434 116.93 1.1623C116.186 1.90489 115.815 2.82504 115.815 3.92277V10.7513C115.815 11.849 116.186 12.7853 116.93 13.5602C117.706 14.3028 118.627 14.6741 119.694 14.6741H133.514V15.1584C133.514 15.2552 133.482 15.3844 133.417 15.5458C133.385 15.675 133.336 15.7718 133.272 15.8364L130.448 20.4856C130.383 20.5502 130.302 20.5986 130.205 20.6309C130.108 20.6632 130.027 20.6955 129.963 20.7278H118.094C117.867 20.7278 117.673 20.8085 117.512 20.9699C117.35 21.099 117.269 21.2766 117.269 21.5026V24.9411C117.269 25.1994 117.35 25.4093 117.512 25.5707C117.673 25.6998 117.867 25.7644 118.094 25.7644H129.963C130.706 25.7644 131.45 25.603 132.193 25.2801C132.969 24.925 133.616 24.473 134.133 23.9241L136.957 19.2749C137.372 18.69 137.725 18.1022 138.121 17.3377C138.444 16.5305 138.606 15.8041 138.606 15.1584Z" fill="white"/>
</svg>
